<?xml version="1.0" encoding="iso-8859-1"?>
<!-- Generator: Adobe Illustrator 19.0.0, SVG Export Plug-In . SVG Version: 6.00 Build 0)  -->
<svg version="1.1" id="Layer_1" xmlns="http://www.w3.org/2000/svg" xmlns:xlink="http://www.w3.org/1999/xlink" x="0px" y="0px"
	 viewBox="0 0 512 512" style="enable-background:new 0 0 512 512;" xml:space="preserve">
<rect x="245.34" style="fill:#434A54;" width="21.328" height="277.33"/>
<path style="fill:#E6E9ED;" d="M256.004,256c-141.383,0-256,114.609-256,256h511.992C511.996,370.609,397.387,256,256.004,256z"/>
<polygon style="fill:#DA4453;" points="479.996,170.656 330.668,170.656 330.668,42.656 479.996,42.656 458.684,106.656 "/>
<rect x="266.67" style="fill:#ED5565;" width="128" height="128"/>
<g>
	<path style="fill:#CCD1D9;" d="M160.004,426.656c0,17.688-14.328,32-32,32s-32-14.312-32-32c0-17.672,14.328-32,32-32
		S160.004,408.984,160.004,426.656z"/>
	<circle style="fill:#CCD1D9;" cx="394.67" cy="437.33" r="32"/>
	<path style="fill:#CCD1D9;" d="M298.668,362.656c0,23.578-19.102,42.672-42.664,42.672s-42.664-19.094-42.664-42.672
		c0-23.562,19.102-42.656,42.664-42.656S298.668,339.094,298.668,362.656z"/>
</g>
<g>
</g>
<g>
</g>
<g>
</g>
<g>
</g>
<g>
</g>
<g>
</g>
<g>
</g>
<g>
</g>
<g>
</g>
<g>
</g>
<g>
</g>
<g>
</g>
<g>
</g>
<g>
</g>
<g>
</g>
</svg>
