<?xml version="1.0" encoding="iso-8859-1"?>
<!-- Generator: Adobe Illustrator 19.0.0, SVG Export Plug-In . SVG Version: 6.00 Build 0)  -->
<svg version="1.1" id="Layer_1" xmlns="http://www.w3.org/2000/svg" xmlns:xlink="http://www.w3.org/1999/xlink" x="0px" y="0px"
	 viewBox="0 0 511.997 511.997" style="enable-background:new 0 0 511.997 511.997;" xml:space="preserve">
<path style="fill:#434A54;" d="M67.443,252.049L7.1,273.502c-5.547,1.969-8.453,8.062-6.484,13.624s8.062,8.469,13.625,6.5
	l60.328-21.468L67.443,252.049z"/>
<path style="fill:#AAB2BD;" d="M85.271,302.313c-11.109,3.938-23.297-1.875-27.234-12.969l-14.266-40.218
	c-3.938-11.109,1.875-23.312,12.984-27.25l160.857-57.015c11.109-3.938,23.297,1.875,27.234,12.984l14.266,40.218
	c3.938,11.094-1.875,23.281-12.984,27.218L85.271,302.313z"/>
<path style="fill:#434A54;" d="M256.004,267.471v194.653c0,0.922,0.109,1.859,0.375,2.797c1.547,5.688,7.406,9.047,13.078,7.484
	c4.75-1.281,7.875-5.594,7.875-10.281V267.471H256.004z"/>
<g>
	<path style="fill:#656D78;" d="M382.549,456.796l-105.67-183.075l-18.484,10.671l105.701,183.061
		c0.469,0.797,1.031,1.562,1.719,2.234c4.172,4.156,10.938,4.125,15.078-0.047C384.361,466.155,384.908,460.874,382.549,456.796z"/>
	<path style="fill:#656D78;" d="M256.457,273.721L150.77,456.796c-2.359,4.078-1.812,9.359,1.656,12.844
		c4.156,4.172,10.906,4.203,15.077,0.047c0.688-0.672,1.266-1.438,1.734-2.219l105.688-183.076L256.457,273.721z"/>
</g>
<path style="fill:#CCD1D9;" d="M273.363,258.283c-11.109,3.938-23.297-1.875-27.234-13l-28.516-80.421
	c-3.938-11.109,1.875-23.296,12.984-27.234l156.967-55.687c11.109-3.938,23.297,1.875,27.234,12.969l28.516,80.437
	c3.938,11.109-1.875,23.312-12.984,27.234L273.363,258.283z"/>
<path style="fill:#434A54;" d="M308.956,267.33c-1.297-4.75-5.594-7.859-10.297-7.859H234.66c-0.922,0-1.859,0.109-2.797,0.375
	c-5.688,1.531-9.047,7.406-7.5,13.078c1.297,4.75,5.609,7.874,10.297,7.874l63.999-0.016c0.922,0,1.859-0.109,2.797-0.359
	C307.144,278.876,310.503,273.018,308.956,267.33z"/>
<path style="fill:#E6E9ED;" d="M457.564,215.565c-11.109,3.938-23.297-1.875-27.234-12.984l-42.766-120.64
	c-3.938-11.109,1.875-23.312,12.984-27.25l40.203-14.25c11.109-3.938,23.297,1.875,27.234,12.984l42.78,120.639
	c3.937,11.109-1.875,23.312-12.984,27.25L457.564,215.565z"/>
<g>
</g>
<g>
</g>
<g>
</g>
<g>
</g>
<g>
</g>
<g>
</g>
<g>
</g>
<g>
</g>
<g>
</g>
<g>
</g>
<g>
</g>
<g>
</g>
<g>
</g>
<g>
</g>
<g>
</g>
</svg>
