<?xml version="1.0" encoding="iso-8859-1"?>
<!-- Generator: Adobe Illustrator 19.0.0, SVG Export Plug-In . SVG Version: 6.00 Build 0)  -->
<svg version="1.1" id="Layer_1" xmlns="http://www.w3.org/2000/svg" xmlns:xlink="http://www.w3.org/1999/xlink" x="0px" y="0px"
	 viewBox="0 0 512 512" style="enable-background:new 0 0 512 512;" xml:space="preserve">
<path style="fill:#F6BB42;" d="M105.094,234.672c-6.031-17.062,307.844-17.062,301.781,0h22.469
	c5.188-16.875,7.969-34.781,7.969-53.344C437.312,81.172,356.156,0,256,0S74.656,81.172,74.656,181.328
	c0,18.562,2.812,36.469,7.969,53.344H105.094z"/>
<polygon style="fill:#FC6E51;" points="83.875,512 256,181.328 428.094,512 "/>
<polygon style="fill:#CCD1D9;" points="416,266.672 96,266.672 138.656,330.672 373.312,330.672 "/>
<path style="fill:#E6E9ED;" d="M512,234.672C512,264.109,488.125,288,458.656,288H53.312C23.875,288,0,264.109,0,234.672l0,0
	c0-29.469,23.875-53.344,53.312-53.344h405.344C488.125,181.328,512,205.203,512,234.672L512,234.672z"/>
<g>
	<path style="fill:#434A54;" d="M138.656,234.672c0,5.875-4.781,10.656-10.656,10.656c-5.906,0-10.688-4.781-10.688-10.656
		c0-5.906,4.781-10.672,10.688-10.672C133.875,224,138.656,228.766,138.656,234.672z"/>
	<path style="fill:#434A54;" d="M224,234.672c0,5.875-4.781,10.656-10.688,10.656c-5.875,0-10.656-4.781-10.656-10.656
		c0-5.906,4.781-10.672,10.656-10.672C219.219,224,224,228.766,224,234.672z"/>
	<path style="fill:#434A54;" d="M309.312,234.672c0,5.875-4.75,10.656-10.656,10.656c-5.875,0-10.656-4.781-10.656-10.656
		c0-5.906,4.781-10.672,10.656-10.672C304.562,224,309.312,228.766,309.312,234.672z"/>
	<path style="fill:#434A54;" d="M394.656,234.672c0,5.875-4.781,10.656-10.656,10.656c-5.906,0-10.688-4.781-10.688-10.656
		c0-5.906,4.781-10.672,10.688-10.672C389.875,224,394.656,228.766,394.656,234.672z"/>
</g>
<path style="fill:#FFCE54;" d="M256,42.172c-5.906,0-10.688,4.781-10.688,10.672S250.094,63.516,256,63.516
	c31.469,0,61.062,12.25,83.312,34.5s34.5,51.844,34.5,83.312h21.344C395.156,104.484,332.844,42.172,256,42.172z"/>
<g>
	<rect x="181.31" y="288" style="fill:#AAB2BD;" width="21.344" height="42.672"/>
	<rect x="245.31" y="288" style="fill:#AAB2BD;" width="21.344" height="42.672"/>
	<rect x="309.31" y="288" style="fill:#AAB2BD;" width="21.344" height="42.672"/>
</g>
<g>
</g>
<g>
</g>
<g>
</g>
<g>
</g>
<g>
</g>
<g>
</g>
<g>
</g>
<g>
</g>
<g>
</g>
<g>
</g>
<g>
</g>
<g>
</g>
<g>
</g>
<g>
</g>
<g>
</g>
</svg>
