<?xml version="1.0" encoding="iso-8859-1"?>
<!-- Generator: Adobe Illustrator 19.0.0, SVG Export Plug-In . SVG Version: 6.00 Build 0)  -->
<svg version="1.1" id="Layer_1" xmlns="http://www.w3.org/2000/svg" xmlns:xlink="http://www.w3.org/1999/xlink" x="0px" y="0px"
	 viewBox="0 0 512.004 512.004" style="enable-background:new 0 0 512.004 512.004;" xml:space="preserve">
<path style="fill:#5D9CEC;" d="M430.33,505.746c-8.344,8.344-21.844,8.344-30.188,0L6.236,111.84
	c-8.312-8.344-8.312-21.844,0-30.156L81.674,6.246c8.344-8.328,21.844-8.328,30.188,0l393.906,393.906
	c8.312,8.328,8.312,21.844,0,30.156L430.33,505.746z"/>
<polygon style="fill:#4A89DC;" points="458.299,473.387 36.424,51.496 51.518,36.418 473.393,458.309 "/>
<path style="fill:#E6E9ED;" d="M364.705,138.434c33.344,33.344,87.375,33.344,120.688,0L364.736,17.762
	C331.393,51.09,331.393,105.121,364.705,138.434z"/>
<path style="fill:#CCD1D9;" d="M409.986,183.699l-90.531-90.516c-8.312-8.328-21.844-8.328-30.156,0L108.268,274.199
	c-33.312,33.328-33.312,87.359,0,120.688c33.344,33.328,87.344,33.328,120.688,0l181.031-181.016
	C418.299,205.527,418.299,192.027,409.986,183.699z"/>
<path style="fill:#AAB2BD;" d="M462.768,40.402c-4.156-4.188-10.906-4.188-15.094,0l-30.156,30.156l15.062,15.078l30.188-30.172l0,0
	C466.924,51.309,466.924,44.559,462.768,40.402z"/>
<g>
</g>
<g>
</g>
<g>
</g>
<g>
</g>
<g>
</g>
<g>
</g>
<g>
</g>
<g>
</g>
<g>
</g>
<g>
</g>
<g>
</g>
<g>
</g>
<g>
</g>
<g>
</g>
<g>
</g>
</svg>
