<?xml version="1.0" encoding="iso-8859-1"?>
<!-- Generator: Adobe Illustrator 19.0.0, SVG Export Plug-In . SVG Version: 6.00 Build 0)  -->
<svg version="1.1" id="Layer_1" xmlns="http://www.w3.org/2000/svg" xmlns:xlink="http://www.w3.org/1999/xlink" x="0px" y="0px"
	 viewBox="0 0 511.999 511.999" style="enable-background:new 0 0 511.999 511.999;" xml:space="preserve">
<polygon style="fill:#E6E9ED;" points="127.949,3.123 82.637,48.435 143.043,108.873 188.355,63.544 "/>
<path style="fill:#FFCE54;" d="M333.168,319.749c-17.25,25.75-46.594,42.719-79.938,42.719c-53.062,0-96.125-43.047-96.125-96.125
	c0-45.751,31.969-84.032,74.781-93.751v-65.063c-78.375,10.438-138.844,77.562-138.844,158.798
	c0,88.484,71.719,160.234,160.188,160.234c69.75,0,129.094-44.594,151.094-106.812H333.168z"/>
<g>
	<path style="fill:#434A54;" d="M421.793,298.374H314.98c-5.906,0-10.688,4.781-10.688,10.688c0,5.891,4.781,10.688,10.688,10.688
		h106.812c5.906,0,10.688-4.797,10.688-10.688C432.48,303.155,427.699,298.374,421.793,298.374z"/>
	<path style="fill:#434A54;" d="M333.418,236.607c4.156,4.172,4.156,10.938,0,15.11c-4.188,4.172-10.938,4.172-15.125,0
		c-4.156-4.172-4.156-10.938,0.031-15.11C322.48,232.436,329.23,232.436,333.418,236.607z"/>
</g>
<path style="fill:#F6BB42;" d="M348.512,191.295c8.344,8.344,8.344,21.859,0,30.203L303.2,266.827
	c-8.344,8.328-21.875,8.328-30.219,0L129.512,123.326c-8.344-8.344-8.344-21.859,0-30.203l45.312-45.313
	c8.344-8.344,21.875-8.344,30.219,0L348.512,191.295z"/>
<path style="fill:#E6E9ED;" d="M253.23,341.108c-23.594,0-42.719,19.125-42.719,42.734v85.438h85.438v-85.438
	C295.949,360.233,276.824,341.108,253.23,341.108z"/>
<path style="fill:#FFCE54;" d="M296.23,197.904l-90.625-90.641c-4.188-4.172-10.938-4.172-15.125,0
	c-4.156,4.172-4.156,10.938,0,15.109l90.625,90.625c4.188,4.188,10.938,4.188,15.125,0
	C300.387,208.842,300.387,202.061,296.23,197.904z"/>
<path style="fill:#CCD1D9;" d="M127.949,3.123L82.637,48.435c-4.156,4.172-4.156,10.938,0,15.125c4.188,4.156,10.938,4.156,15.125,0
	l45.312-45.328c4.156-4.172,4.156-10.922,0-15.109C138.887-1.034,132.105-1.049,127.949,3.123z"/>
<path style="fill:#434A54;" d="M402.762,511.999V469.28c0-11.812-9.562-21.375-21.375-21.375H125.074
	c-11.781,0-21.344,9.562-21.344,21.375v42.719H402.762z"/>
<g>
</g>
<g>
</g>
<g>
</g>
<g>
</g>
<g>
</g>
<g>
</g>
<g>
</g>
<g>
</g>
<g>
</g>
<g>
</g>
<g>
</g>
<g>
</g>
<g>
</g>
<g>
</g>
<g>
</g>
</svg>
