<?xml version="1.0" encoding="iso-8859-1"?>
<!-- Generator: Adobe Illustrator 19.0.0, SVG Export Plug-In . SVG Version: 6.00 Build 0)  -->
<svg version="1.1" id="Layer_1" xmlns="http://www.w3.org/2000/svg" xmlns:xlink="http://www.w3.org/1999/xlink" x="0px" y="0px"
	 viewBox="0 0 512 512" style="enable-background:new 0 0 512 512;" xml:space="preserve">
<g>
	<path style="fill:#434A54;" d="M358.016,18.211c4.156-4.172,4.156-10.922,0-15.094c-4.156-4.156-10.906-4.156-15.094,0
		L78.328,267.742L93.39,282.82L358.016,18.211z"/>
	<path style="fill:#434A54;" d="M349.859,147.055c4.156-4.156,4.156-10.906,0-15.094c-4.188-4.156-10.938-4.156-15.094,0l-264,264
		l15.094,15.094L349.859,147.055z"/>
	<path style="fill:#434A54;" d="M470.516,267.742c4.188-4.173,4.188-10.938,0-15.094c-4.156-4.156-10.906-4.156-15.062,0
		L251.797,456.305l15.094,15.077L470.516,267.742z"/>
</g>
<path style="fill:#CCD1D9;" d="M266.891,471.382c-54.156,54.157-141.969,54.157-196.125,0c-54.156-54.141-54.156-141.952,0-196.108
	s141.969-54.156,196.125,0S321.047,417.241,266.891,471.382z"/>
<path style="fill:#434A54;" d="M478.734,138.852c4.156-4.172,4.156-10.922,0-15.078c-4.188-4.172-10.938-4.172-15.094,0
	l-264.656,264.64c-4.156,4.171-4.156,10.922,0,15.078c4.188,4.172,10.938,4.172,15.094,0L478.734,138.852z"/>
<g>
</g>
<g>
</g>
<g>
</g>
<g>
</g>
<g>
</g>
<g>
</g>
<g>
</g>
<g>
</g>
<g>
</g>
<g>
</g>
<g>
</g>
<g>
</g>
<g>
</g>
<g>
</g>
<g>
</g>
</svg>
