<?xml version="1.0" encoding="iso-8859-1"?>
<!-- Generator: Adobe Illustrator 19.0.0, SVG Export Plug-In . SVG Version: 6.00 Build 0)  -->
<svg version="1.1" id="Layer_1" xmlns="http://www.w3.org/2000/svg" xmlns:xlink="http://www.w3.org/1999/xlink" x="0px" y="0px"
	 viewBox="0 0 512 512" style="enable-background:new 0 0 512 512;" xml:space="preserve">
<path style="fill:#434A54;" d="M63.985,149.318l192.019,204.059L448.03,149.318H63.985z M113.361,170.655h285.294L256.004,322.252
	L113.361,170.655z"/>
<path style="fill:#DA4453;" d="M74.673,234.664c41.235,0,74.674-33.431,74.674-74.673c0-41.235-33.438-74.666-74.674-74.666
	C33.423,85.325,0,118.756,0,159.991C0,201.233,33.423,234.664,74.673,234.664z"/>
<path style="fill:#ED5565;" d="M74.673,138.662c-17.656,0-32,14.329-32,32.001c0,5.891,4.781,10.664,10.688,10.664
	c5.875,0,10.656-4.773,10.656-10.664c0-5.883,4.781-10.672,10.656-10.672c5.907,0,10.688-4.773,10.688-10.665
	C85.361,143.436,80.58,138.662,74.673,138.662z"/>
<g>
	<path style="fill:#DA4453;" d="M351.498,330.674c0-53.018-43.001-96.01-96.025-96.01c-53.017,0-96.017,42.992-96.017,96.01
		c0,53.016,43,96.001,96.017,96.001C308.497,426.675,351.498,383.689,351.498,330.674z"/>
	<path style="fill:#DA4453;" d="M437.343,234.664c41.251,0,74.657-33.431,74.657-74.673c0-41.235-33.406-74.666-74.657-74.666
		c-41.25,0-74.688,33.431-74.688,74.666C362.654,201.233,396.093,234.664,437.343,234.664z"/>
</g>
<g>
	<path style="fill:#ED5565;" d="M437.343,127.99c-17.688,0-32,14.328-32,32.001c0,5.891,4.781,10.672,10.656,10.672
		c5.906,0,10.688-4.781,10.688-10.672c0-5.883,4.781-10.665,10.656-10.665s10.656-4.773,10.656-10.664
		C447.999,132.764,443.218,127.99,437.343,127.99z"/>
	<path style="fill:#ED5565;" d="M255.473,277.344c-29.453,0-53.329,23.876-53.329,53.33c0,5.891,4.767,10.672,10.657,10.672
		s10.672-4.781,10.672-10.672c0-17.642,14.359-32.001,32-32.001c5.891,0,10.681-4.781,10.681-10.672
		C266.153,282.109,261.363,277.344,255.473,277.344z"/>
</g>
<g>
</g>
<g>
</g>
<g>
</g>
<g>
</g>
<g>
</g>
<g>
</g>
<g>
</g>
<g>
</g>
<g>
</g>
<g>
</g>
<g>
</g>
<g>
</g>
<g>
</g>
<g>
</g>
<g>
</g>
</svg>
