<?xml version="1.0" encoding="iso-8859-1"?>
<!-- Generator: Adobe Illustrator 19.0.0, SVG Export Plug-In . SVG Version: 6.00 Build 0)  -->
<svg version="1.1" id="Layer_1" xmlns="http://www.w3.org/2000/svg" xmlns:xlink="http://www.w3.org/1999/xlink" x="0px" y="0px"
	 viewBox="0 0 512 512" style="enable-background:new 0 0 512 512;" xml:space="preserve">
<path style="fill:#37BC9B;" d="M490.688,405.328c0,5.906-4.781,10.672-10.688,10.672H32c-5.875,0-10.656-4.766-10.656-10.672
	V106.672C21.344,100.766,26.125,96,32,96h448c5.906,0,10.688,4.766,10.688,10.672V405.328z"/>
<g>
	<path style="fill:#F5F7FA;" d="M448,384c0,5.891-4.781,10.672-10.656,10.672c-5.906,0-10.656-4.781-10.656-10.672
		s4.75-10.672,10.656-10.672C443.219,373.328,448,378.109,448,384z"/>
	<path style="fill:#F5F7FA;" d="M362.688,384c0,5.891-4.781,10.672-10.688,10.672c-5.875,0-10.656-4.781-10.656-10.672
		s4.781-10.672,10.656-10.672C357.906,373.328,362.688,378.109,362.688,384z"/>
</g>
<path style="fill:#434A54;" d="M501.344,394.672H10.688C4.781,394.672,0,399.453,0,405.328C0,411.234,4.781,416,10.688,416h490.656
	c5.875,0,10.656-4.766,10.656-10.672C512,399.453,507.219,394.672,501.344,394.672z"/>
<g>
	<rect x="352" y="373.33" style="fill:#F5F7FA;" width="85.34" height="21.344"/>
	<path style="fill:#F5F7FA;" d="M138.688,224c5.875,0,10.656-4.766,10.656-10.672c0-5.875-4.781-10.656-10.656-10.656H85.344
		c-5.906,0-10.656,4.781-10.656,10.656v85.344c0,5.875,4.75,10.656,10.656,10.656h53.344c5.875,0,10.656-4.781,10.656-10.656
		c0-5.906-4.781-10.672-10.656-10.672H96v-21.328h32c5.906,0,10.688-4.781,10.688-10.672s-4.781-10.672-10.688-10.672H96V224
		H138.688z"/>
	<path style="fill:#F5F7FA;" d="M213.344,245.328h-32c-5.906,0-10.656,4.781-10.656,10.672s4.75,10.672,10.656,10.672h32
		c5.875,0,10.656-4.781,10.656-10.672S219.219,245.328,213.344,245.328z"/>
	<path style="fill:#F5F7FA;" d="M213.344,277.328h-32c-5.906,0-10.656,4.781-10.656,10.672s4.75,10.672,10.656,10.672h32
		c5.875,0,10.656-4.781,10.656-10.672S219.219,277.328,213.344,277.328z"/>
	<path style="fill:#F5F7FA;" d="M373.344,266.672c1.969,0,3.781,0.531,5.375,1.453c1.562,0.922,3.406,1.422,5.344,1.422
		c5.875,0,10.656-4.766,10.656-10.656c0-3.953-2.156-7.391-5.344-9.234c-0.125-0.078-0.312-0.172-0.438-0.25
		c-4.625-2.578-9.938-4.078-15.594-4.078c-17.688,0-32,14.328-32,32c0,17.688,14.312,32,32,32c5.656,0,10.969-1.484,15.594-4.062
		c0.125-0.078,0.312-0.188,0.438-0.25c3.188-1.844,5.344-5.281,5.344-9.234c0-5.891-4.781-10.672-10.656-10.672
		c-1.938,0-3.781,0.516-5.344,1.438c-1.594,0.922-3.406,1.453-5.375,1.453c-5.875,0-10.656-4.781-10.656-10.672
		C362.688,271.453,367.469,266.672,373.344,266.672z"/>
	<path style="fill:#F5F7FA;" d="M309.312,245.328c-2.375,0-4.562,0.797-6.344,2.109l-20.312,15.828l-20.312-15.828
		c-1.781-1.312-3.969-2.109-6.344-2.109c-5.875,0-10.656,4.781-10.656,10.672v42.672c0,5.875,4.781,10.656,10.656,10.656
		c5.906,0,10.688-4.781,10.688-10.656V277.86l9.156,7.141c1.844,1.531,4.219,2.453,6.812,2.453s4.969-0.922,6.812-2.453l9.188-7.141
		v20.812c0,5.875,4.781,10.656,10.656,10.656c5.906,0,10.656-4.781,10.656-10.656V256
		C319.969,250.109,315.219,245.328,309.312,245.328z"/>
	<path style="fill:#F5F7FA;" d="M426.688,223.953c-0.031,0-0.062,0-0.062,0h-1.594l6.188-12.312l0,0
		c2.062-4.141,1.25-9.312-2.312-12.594c-2.062-1.906-4.656-2.844-7.25-2.844l0,0h-16.312l0,0l0,0
		c-5.906,0-10.656,4.781-10.656,10.672c0,5.578,4.281,10.141,9.75,10.609l-6.031,12c-0.344,0.688-0.656,1.406-0.875,2.172
		c-1.656,5.656,1.594,11.578,7.25,13.219c1,0.281,2,0.422,2.969,0.422l0,0h18.938l0,0c5.875,0,10.656-4.781,10.656-10.672
		S432.562,223.953,426.688,223.953z"/>
</g>
<g>
</g>
<g>
</g>
<g>
</g>
<g>
</g>
<g>
</g>
<g>
</g>
<g>
</g>
<g>
</g>
<g>
</g>
<g>
</g>
<g>
</g>
<g>
</g>
<g>
</g>
<g>
</g>
<g>
</g>
</svg>
