<?xml version="1.0" encoding="iso-8859-1"?>
<!-- Generator: Adobe Illustrator 19.0.0, SVG Export Plug-In . SVG Version: 6.00 Build 0)  -->
<svg version="1.1" id="Layer_1" xmlns="http://www.w3.org/2000/svg" xmlns:xlink="http://www.w3.org/1999/xlink" x="0px" y="0px"
	 viewBox="0 0 512 512" style="enable-background:new 0 0 512 512;" xml:space="preserve">
<path style="fill:#E6E9ED;" d="M320,138.938V0H192v138.938C117.438,165.297,64,236.406,64,320c0,106.031,85.969,192,192,192
	c106.047,0,192-85.969,192-192C448,236.406,394.578,165.297,320,138.938z"/>
<path style="fill:#CCD1D9;" d="M341.344,32c0,17.672-14.328,32-32,32H202.672c-17.672,0-32-14.328-32-32l0,0
	c0-17.688,14.328-32,32-32h106.672C327.016,0,341.344,14.312,341.344,32L341.344,32z"/>
<path style="fill:#AC92EC;" d="M256,512c106.047,0,192-85.969,192-192c0-15.094-1.75-29.75-5.031-43.844
	c-9.922,27.469-30.969,52.484-60.609,68.312c-18.109,9.656-35.203,13.906-51.641,13.906c-36.344,0-69.406-20.812-102.844-49.844
	c-30.703-26.656-65.984-49-104.5-49c-16.125,0-32.828,3.922-50,13.094c-1.359,0.719-2.703,1.469-4.031,2.25
	C65.859,289.344,64,304.453,64,320C64,426.031,149.969,512,256,512z"/>
<g>
</g>
<g>
</g>
<g>
</g>
<g>
</g>
<g>
</g>
<g>
</g>
<g>
</g>
<g>
</g>
<g>
</g>
<g>
</g>
<g>
</g>
<g>
</g>
<g>
</g>
<g>
</g>
<g>
</g>
</svg>
