<?xml version="1.0" encoding="iso-8859-1"?>
<!-- Generator: Adobe Illustrator 19.0.0, SVG Export Plug-In . SVG Version: 6.00 Build 0)  -->
<svg version="1.1" id="Layer_1" xmlns="http://www.w3.org/2000/svg" xmlns:xlink="http://www.w3.org/1999/xlink" x="0px" y="0px"
	 viewBox="0 0 512 512" style="enable-background:new 0 0 512 512;" xml:space="preserve">
<path style="fill:#4FC1E9;" d="M59.094,213.25v288.094c0,5.875,4.781,10.656,10.656,10.656h298.688
	c5.875,0,10.656-4.781,10.656-10.656V213.25H59.094z"/>
<g>
	<path style="fill:#434A54;" d="M155.093,426.656h-96v-21.312h96c5.906,0,10.656,4.766,10.656,10.656S161,426.656,155.093,426.656z"
		/>
	<path style="fill:#434A54;" d="M155.093,362.656h-96v-21.312h96c5.906,0,10.656,4.766,10.656,10.656S161,362.656,155.093,362.656z"
		/>
	<path style="fill:#434A54;" d="M155.093,298.656h-96v-21.312h96c5.906,0,10.656,4.766,10.656,10.656S161,298.656,155.093,298.656z"
		/>
</g>
<path style="fill:#E6E9ED;" d="M442.219,0H69.75c-5.875,0-10.656,4.781-10.656,10.656V213.25h320V106.688l71.625-89.578
	c0-0.016,0-0.016,0-0.016c1.375-1.781,2.188-4,2.188-6.438C452.906,4.781,448.125,0,442.219,0z"/>
<g>
</g>
<g>
</g>
<g>
</g>
<g>
</g>
<g>
</g>
<g>
</g>
<g>
</g>
<g>
</g>
<g>
</g>
<g>
</g>
<g>
</g>
<g>
</g>
<g>
</g>
<g>
</g>
<g>
</g>
</svg>
