<?xml version="1.0" encoding="iso-8859-1"?>
<!-- Generator: Adobe Illustrator 19.0.0, SVG Export Plug-In . SVG Version: 6.00 Build 0)  -->
<svg version="1.1" id="Layer_1" xmlns="http://www.w3.org/2000/svg" xmlns:xlink="http://www.w3.org/1999/xlink" x="0px" y="0px"
	 viewBox="0 0 512 512" style="enable-background:new 0 0 512 512;" xml:space="preserve">
<polygon style="fill:#AAB2BD;" points="180.221,383.998 116.221,341.342 52.221,512 222.91,512 "/>
<path style="fill:#CCD1D9;" d="M279.692,199.215c-12.5-12.5-32.782-12.5-45.282,0c-12.47,12.5-12.47,32.781,0,45.25
	c12.5,12.5,32.782,12.5,45.282,0C292.161,231.996,292.161,211.715,279.692,199.215z"/>
<path style="fill:#F27789;" d="M268.88,131.183c-4.156,4.188-4.156,10.938,0,15.094c1.594,1.594,3.594,2.594,5.656,2.938
	c13.25,3.188,25.438,9.969,35.312,19.844s16.656,22.062,19.812,35.313c0.375,2.062,1.375,4.031,2.969,5.625
	c4.156,4.188,10.906,4.188,15.062,0c2.688-2.656,3.656-6.406,2.875-9.875c-3.906-16.907-12.438-32.969-25.625-46.157
	c-13.188-13.188-29.25-21.719-46.156-25.625C275.317,127.558,271.567,128.526,268.88,131.183z"/>
<path style="fill:#ED5565;" d="M285.505,64.401L285.505,64.401c-3.469-0.781-7.25,0.156-9.938,2.844
	c-4.156,4.156-4.156,10.906,0,15.094c1.594,1.594,3.531,2.562,5.594,2.938c9.594,1.688,18.969,4.375,28.094,8.062
	c17.188,6.969,32.594,17.219,45.844,30.469c13.251,13.219,23.532,28.657,30.501,45.844c3.688,9.094,6.375,18.5,8.031,28.094
	c0.406,2.031,1.375,4,2.969,5.594c4.125,4.156,10.876,4.156,15.063,0c2.688-2.688,3.625-6.469,2.812-9.938h0.031
	c-5.594-31.031-20.313-60.719-44.282-84.688C346.224,84.745,316.536,69.963,285.505,64.401z"/>
<path style="fill:#DA4453;" d="M289.13,0.15v0.031c-3.312-0.625-6.875,0.375-9.438,2.938c-4.188,4.156-4.188,10.906,0,15.094
	c1.719,1.75,3.938,2.75,6.219,3.031c0.062,0,0.125,0,0.219,0.031c16.156,2.312,31.938,6.562,47.188,12.75
	c25.125,10.188,47.72,25.156,67.032,44.532c19.345,19.344,34.345,41.875,44.532,67.032c6.156,15.25,10.438,31.032,12.75,47.188
	c0,0.062,0,0.156,0.031,0.219c0.25,2.282,1.281,4.469,3.031,6.219c4.156,4.188,10.906,4.188,15.062,0
	c2.594-2.562,3.562-6.125,2.969-9.438h0.031c-6.656-46.219-27.75-90.751-63.312-126.313C379.912,27.9,335.349,6.806,289.13,0.15z"/>
<path style="fill:#E6E9ED;" d="M407.757,372.467L407.757,372.467L257.099,221.809L106.44,71.12l0,0
	c-4.188-4.156-10.938-4.156-15.094,0c-0.188,0.188-0.562,0.594-0.562,0.625c-79.47,87.938-76.813,223.691,7.938,308.441
	c84.72,84.752,220.502,87.408,308.411,7.938c0.031,0,0.438-0.375,0.625-0.562C411.913,383.404,411.913,376.623,407.757,372.467z"/>
<g>
</g>
<g>
</g>
<g>
</g>
<g>
</g>
<g>
</g>
<g>
</g>
<g>
</g>
<g>
</g>
<g>
</g>
<g>
</g>
<g>
</g>
<g>
</g>
<g>
</g>
<g>
</g>
<g>
</g>
</svg>
