<?xml version="1.0" encoding="iso-8859-1"?>
<!-- Generator: Adobe Illustrator 19.0.0, SVG Export Plug-In . SVG Version: 6.00 Build 0)  -->
<svg version="1.1" id="Layer_1" xmlns="http://www.w3.org/2000/svg" xmlns:xlink="http://www.w3.org/1999/xlink" x="0px" y="0px"
	 viewBox="0 0 512 512" style="enable-background:new 0 0 512 512;" xml:space="preserve">
<path style="fill:#CCD1D9;" d="M288,469.344H181.344c-5.891,0-10.672,4.766-10.672,10.656v21.344h128V480
	C298.672,474.109,293.906,469.344,288,469.344z"/>
<path style="fill:#E6E9ED;" d="M277.344,113.438V21.344H192v91.938c-55.812,17.938-96.219,70.266-96.219,132.062
	C95.781,321.906,157.844,384,234.438,384s138.656-62.094,138.656-138.656C373.094,183.719,332.922,131.516,277.344,113.438z"/>
<path style="fill:#AAB2BD;" d="M181.344,64c-5.891,0-10.672,4.781-10.672,10.656c0,5.906,4.781,10.688,10.672,10.688h256V64H181.344
	z"/>
<g>
	<path style="fill:#CCD1D9;" d="M288,21.344H181.344c-5.891,0-10.672,4.766-10.672,10.656s4.781,10.656,10.672,10.656H288
		c5.906,0,10.672-4.766,10.672-10.656S293.906,21.344,288,21.344z"/>
	<path style="fill:#CCD1D9;" d="M437.344,0c-5.906,0-10.672,4.781-10.672,10.656v480H448v-480C448,4.781,443.234,0,437.344,0z"/>
</g>
<path style="fill:#434A54;" d="M501.344,490.656H10.672C4.781,490.656,0,495.438,0,501.344C0,507.219,4.781,512,10.672,512h490.672
	c5.891,0,10.656-4.781,10.656-10.656C512,495.438,507.234,490.656,501.344,490.656z"/>
<path style="fill:#ED5565;" d="M234.438,384c76.594,0,138.656-62.094,138.656-138.656c0-4.656-0.219-9.25-0.672-13.781
	c-7.578,21.312-33.031,40.562-66.047,47.469c-4.125,0.875-8.906,1.359-14.156,1.359c-21.156,0-49.719-7.984-70.734-31.922
	c-24.484-27.891-56.547-37.312-79.094-37.312c-4.922,0-9.391,0.453-13.203,1.25c-11.703,2.453-22.438,6.453-31.781,11.531
	c-1.062,6.984-1.625,14.125-1.625,21.406C95.781,321.906,157.844,384,234.438,384z"/>
<path style="fill:#FFCE54;" d="M234.672,453.344c-8.822,0-16-7.178-16-16c0-11.725,8.428-23.647,16.003-31.745
	c7.629,8.131,15.997,20.001,15.997,31.745C250.672,446.166,243.494,453.344,234.672,453.344z"/>
<path style="fill:#F6BB42;" d="M234.672,384c0,0-32,23.781-32,53.344c0,17.656,14.328,32,32,32s32-14.344,32-32
	C266.672,407.781,234.672,384,234.672,384L234.672,384z"/>
<g>
</g>
<g>
</g>
<g>
</g>
<g>
</g>
<g>
</g>
<g>
</g>
<g>
</g>
<g>
</g>
<g>
</g>
<g>
</g>
<g>
</g>
<g>
</g>
<g>
</g>
<g>
</g>
<g>
</g>
</svg>
