<?xml version="1.0" encoding="iso-8859-1"?>
<!-- Generator: Adobe Illustrator 19.0.0, SVG Export Plug-In . SVG Version: 6.00 Build 0)  -->
<svg version="1.1" id="Layer_1" xmlns="http://www.w3.org/2000/svg" xmlns:xlink="http://www.w3.org/1999/xlink" x="0px" y="0px"
	 viewBox="0 0 512 512" style="enable-background:new 0 0 512 512;" xml:space="preserve">
<rect x="245.34" style="fill:#434A54;" width="21.328" height="149.34"/>
<polygon style="fill:#DA4453;" points="362.668,85.336 266.668,85.336 266.668,0 362.668,0 341.34,42.664 "/>
<path style="fill:#FC6E51;" d="M447.996,320c0,106.031-85.953,192-191.992,192c-106.04,0-192-85.969-192-192
	c0-106.039,85.96-192,192-192C362.043,128,447.996,213.961,447.996,320z"/>
<g>
	<path style="fill:#E9573F;" d="M234.668,362.656c0,23.562-19.102,42.688-42.664,42.688s-42.665-19.125-42.665-42.688
		S168.441,320,192.004,320S234.668,339.094,234.668,362.656z"/>
	<path style="fill:#E9573F;" d="M373.34,373.344c0,17.656-14.328,32-32,32s-32-14.344-32-32c0-17.688,14.328-32,32-32
		S373.34,355.656,373.34,373.344z"/>
	<path style="fill:#E9573F;" d="M320.004,245.336c0,17.672-14.328,32.008-32.001,32.008c-17.671,0-31.999-14.336-31.999-32.008
		s14.328-32,31.999-32C305.676,213.336,320.004,227.664,320.004,245.336z"/>
</g>
<g>
</g>
<g>
</g>
<g>
</g>
<g>
</g>
<g>
</g>
<g>
</g>
<g>
</g>
<g>
</g>
<g>
</g>
<g>
</g>
<g>
</g>
<g>
</g>
<g>
</g>
<g>
</g>
<g>
</g>
</svg>
