<?xml version="1.0" encoding="iso-8859-1"?>
<!-- Generator: Adobe Illustrator 19.0.0, SVG Export Plug-In . SVG Version: 6.00 Build 0)  -->
<svg version="1.1" id="Layer_1" xmlns="http://www.w3.org/2000/svg" xmlns:xlink="http://www.w3.org/1999/xlink" x="0px" y="0px"
	 viewBox="0 0 512 512" style="enable-background:new 0 0 512 512;" xml:space="preserve">
<path style="fill:#CCD1D9;" d="M501.312,245.328H10.656C4.781,245.328,0,250.109,0,256c0,5.891,4.781,10.672,10.656,10.672h490.656
	c5.906,0,10.688-4.781,10.688-10.672S507.219,245.328,501.312,245.328z"/>
<rect x="32" y="202.67" style="fill:#F6BB42;" width="192" height="106.66"/>
<path style="fill:#FFCE54;" d="M181.312,266.672H74.625v-21.344c0-5.875-4.781-10.656-10.656-10.656
	c-5.906,0-10.688,4.781-10.688,10.656v32c0,5.875,4.812,10.656,10.688,10.672l0,0h117.344c5.906,0,10.688-4.766,10.688-10.672
	C192,271.453,187.219,266.672,181.312,266.672z"/>
<rect x="288" y="202.67" style="fill:#F6BB42;" width="192" height="106.66"/>
<g>
	<path style="fill:#E6E9ED;" d="M224,192H32c-5.906,0-10.688,4.766-10.688,10.672v106.656C21.312,315.234,26.094,320,32,320h192
		c5.875,0,10.656-4.766,10.656-10.672V202.672C234.656,196.766,229.875,192,224,192z M213.312,298.672H42.656v-85.344h170.656
		L213.312,298.672L213.312,298.672z"/>
	<path style="fill:#E6E9ED;" d="M480,192H288c-5.906,0-10.688,4.766-10.688,10.672v106.656c0,5.906,4.781,10.672,10.688,10.672h192
		c5.875,0,10.656-4.766,10.656-10.672V202.672C490.656,196.766,485.875,192,480,192z M469.312,298.672H298.656v-85.344h170.656
		V298.672z"/>
</g>
<path style="fill:#FFCE54;" d="M437.312,266.672H330.625v-21.344c0-5.875-4.781-10.656-10.656-10.656
	c-5.906,0-10.688,4.781-10.688,10.656v32c0,5.875,4.812,10.656,10.688,10.672l0,0h117.344c5.906,0,10.688-4.766,10.688-10.672
	C448,271.453,443.219,266.672,437.312,266.672z"/>
<g>
</g>
<g>
</g>
<g>
</g>
<g>
</g>
<g>
</g>
<g>
</g>
<g>
</g>
<g>
</g>
<g>
</g>
<g>
</g>
<g>
</g>
<g>
</g>
<g>
</g>
<g>
</g>
<g>
</g>
</svg>
