<?xml version="1.0" encoding="iso-8859-1"?>
<!-- Generator: Adobe Illustrator 19.0.0, SVG Export Plug-In . SVG Version: 6.00 Build 0)  -->
<svg version="1.1" id="Layer_1" xmlns="http://www.w3.org/2000/svg" xmlns:xlink="http://www.w3.org/1999/xlink" x="0px" y="0px"
	 viewBox="0 0 512 512" style="enable-background:new 0 0 512 512;" xml:space="preserve">
<path style="fill:#E6E9ED;" d="M501.328,245.344C501.328,109.844,391.516,0,256.016,0S10.672,109.844,10.672,245.344
	c0,88.578,46.969,166.188,117.344,209.312V512h256v-57.344C454.391,411.531,501.328,333.922,501.328,245.344z"/>
<rect x="128.02" y="454.66" style="fill:#CCD1D9;" width="256" height="57.34"/>
<path style="fill:#F6BB42;" d="M421.578,64.297L247.641,238.219l7.531,7.531l-7.531,7.531l173.5,173.5
	c49.266-44.875,80.188-109.547,80.188-181.438C501.328,173.641,470.594,109.141,421.578,64.297z"/>
<g>
	<path style="fill:#AAB2BD;" d="M213.344,480c-5.891,0-10.672,4.781-10.672,10.656V512h21.344v-21.344
		C224.016,484.781,219.234,480,213.344,480z"/>
	<path style="fill:#AAB2BD;" d="M298.672,480c-5.891,0-10.656,4.781-10.656,10.656V512h21.328v-21.344
		C309.344,484.781,304.578,480,298.672,480z"/>
</g>
<g>
	<path style="fill:#CCD1D9;" d="M241.406,234.672H10.891c-0.141,3.531-0.219,7.094-0.219,10.672c0,3.562,0.094,7.125,0.25,10.656
		h230.484L241.406,234.672L241.406,234.672z"/>
	<path style="fill:#CCD1D9;" d="M106.672,341.344h-76.5c3.125,7.281,6.562,14.406,10.344,21.312h66.156
		c5.906,0,10.656-4.766,10.656-10.656C117.328,346.094,112.578,341.344,106.672,341.344z"/>
</g>
<path style="fill:#FFCE54;" d="M458.984,245.25c0-32.156-7.5-62.562-20.844-89.578c-1.656-3.719-5.375-6.344-9.75-6.344
	c-5.891,0-10.656,4.781-10.656,10.672c0,1.766,0.438,3.453,1.203,4.922c0.016,0.031,3.078,6.469,4.453,9.766
	c9.469,22.328,14.25,46.062,14.25,70.562c0,0.031,0,0.062,0,0.078c0,0.031,0,0.062,0,0.094c0,24.484-4.781,48.219-14.25,70.562
	c-1.375,3.297-4.438,9.734-4.453,9.75c-0.766,1.484-1.203,3.141-1.203,4.922c0,5.906,4.766,10.688,10.656,10.688
	c4.375,0,8.094-2.625,9.75-6.375c13.344-26.984,20.844-57.406,20.844-89.547c0-0.031,0-0.062,0-0.094
	C458.984,245.312,458.984,245.281,458.984,245.25z"/>
<path style="fill:#434A54;" d="M278.641,268.391c-12.5,12.5-32.781,12.5-45.25,0c-12.5-12.5-12.5-32.766,0-45.25
	c12.469-12.5,32.75-12.5,45.25,0C291.141,235.625,291.141,255.891,278.641,268.391z"/>
<g>
</g>
<g>
</g>
<g>
</g>
<g>
</g>
<g>
</g>
<g>
</g>
<g>
</g>
<g>
</g>
<g>
</g>
<g>
</g>
<g>
</g>
<g>
</g>
<g>
</g>
<g>
</g>
<g>
</g>
</svg>
