<?xml version="1.0" encoding="iso-8859-1"?>
<!-- Generator: Adobe Illustrator 19.0.0, SVG Export Plug-In . SVG Version: 6.00 Build 0)  -->
<svg version="1.1" id="Layer_1" xmlns="http://www.w3.org/2000/svg" xmlns:xlink="http://www.w3.org/1999/xlink" x="0px" y="0px"
	 viewBox="0 0 512.001 512.001" style="enable-background:new 0 0 512.001 512.001;" xml:space="preserve">
<path style="fill:#E6E9ED;" d="M416.012,159.999C416.012,71.632,344.355,0,256.005,0C167.638,0,96.006,71.632,96.006,159.999
	c0,52.344,25.133,98.819,63.999,127.999v53.344h192.194v-53.469C390.949,258.662,416.012,212.257,416.012,159.999z"/>
<g>
	<path style="fill:#CCD1D9;" d="M213.302,306.998c-5.898,0-10.672,4.781-10.672,10.672v23.609h21.336V317.67
		C223.966,311.779,219.192,306.998,213.302,306.998z"/>
	<path style="fill:#CCD1D9;" d="M256.005,306.998c-5.891,0-10.672,4.781-10.672,10.672v23.609h21.336V317.67
		C266.669,311.779,261.888,306.998,256.005,306.998z"/>
	<path style="fill:#CCD1D9;" d="M298.668,306.998c-5.891,0-10.655,4.781-10.655,10.672v23.609h21.312V317.67
		C309.324,311.779,304.559,306.998,298.668,306.998z"/>
</g>
<g>
	<circle style="fill:#434A54;" cx="202.631" cy="149.34" r="32"/>
	<circle style="fill:#434A54;" cx="309.371" cy="149.34" r="32"/>
	<path style="fill:#434A54;" d="M266.669,213.335h-21.336c-5.891,0-10.664,4.773-10.664,10.664s4.773,10.671,10.664,10.671h21.336
		c5.891,0,10.656-4.781,10.656-10.671S272.56,213.335,266.669,213.335z"/>
</g>
<path style="fill:#CCD1D9;" d="M464.48,471.123c-5.562-1.953-11.641,1-13.578,6.562L68.123,344.342
	c1.938-5.562-1-11.625-6.562-13.578c-5.562-1.938-11.648,1.016-13.586,6.578l-7.016,20.141c-1.938,5.562,1,11.641,6.562,13.578
	c5.57,1.938,11.648-1,13.586-6.562l382.78,133.311l0,0c-1.938,5.562,1,11.656,6.562,13.594s11.641-1,13.578-6.562l7.016-20.156
	C472.98,479.123,470.043,473.045,464.48,471.123z"/>
<path style="fill:#E6E9ED;" d="M471.043,357.482l-7.016-20.141c-1.938-5.562-8.016-8.516-13.578-6.578
	c-5.562,1.953-8.5,8.016-6.562,13.578L61.107,477.686c-1.938-5.562-8.016-8.516-13.586-6.562c-5.562,1.922-8.5,8-6.562,13.562
	l7.016,20.156c1.938,5.562,8.023,8.5,13.586,6.562s8.5-8.031,6.562-13.594l0,0l382.779-133.312c1.938,5.562,8.016,8.5,13.578,6.562
	S472.98,363.045,471.043,357.482z"/>
<g>
</g>
<g>
</g>
<g>
</g>
<g>
</g>
<g>
</g>
<g>
</g>
<g>
</g>
<g>
</g>
<g>
</g>
<g>
</g>
<g>
</g>
<g>
</g>
<g>
</g>
<g>
</g>
<g>
</g>
</svg>
