<?xml version="1.0" encoding="iso-8859-1"?>
<!-- Generator: Adobe Illustrator 19.0.0, SVG Export Plug-In . SVG Version: 6.00 Build 0)  -->
<svg version="1.1" id="Layer_1" xmlns="http://www.w3.org/2000/svg" xmlns:xlink="http://www.w3.org/1999/xlink" x="0px" y="0px"
	 viewBox="0 0 511.999 511.999" style="enable-background:new 0 0 511.999 511.999;" xml:space="preserve">
<path style="fill:#CCD1D9;" d="M499.496,364.496L327.203,192.188l-15.093,15.094H199.893L184.8,192.188L12.492,364.496
	c-16.656,16.656-16.656,43.688,0,60.344c8.343,8.327,19.25,12.499,30.171,12.499h213.324h0.016h213.322
	c10.938,0,21.844-4.172,30.172-12.499C516.167,408.184,516.167,381.152,499.496,364.496z"/>
<path style="fill:#E6E9ED;" d="M256.002,10.661L256.002,10.661c-25.812,0-74.671,48.671-74.671,106.669
	c0,24.796,0,341.337,0,341.337h74.671h74.669c0,0,0-316.541,0-341.337C330.672,59.332,281.798,10.661,256.002,10.661z"/>
<g>
	<path style="fill:#434A54;" d="M234.675,469.338c-5.907,0-10.672,4.781-10.672,10.656h-21.328c0-5.875-4.781-10.656-10.688-10.656
		c-5.875,0-10.656,4.781-10.656,10.656v10.672c0,5.891,4.781,10.672,10.656,10.672h42.688c5.875,0,10.656-4.781,10.656-10.672
		v-10.672C245.331,474.119,240.55,469.338,234.675,469.338z"/>
	<path style="fill:#434A54;" d="M320,469.338c-5.89,0-10.671,4.781-10.671,10.656h-21.328c0-5.875-4.781-10.656-10.672-10.656
		c-5.89,0-10.655,4.781-10.655,10.656v10.672c0,5.891,4.766,10.672,10.655,10.672H320c5.891,0,10.672-4.781,10.672-10.672v-10.672
		C330.672,474.119,325.89,469.338,320,469.338z"/>
</g>
<path style="fill:#CCD1D9;" d="M256.002,319.778c-5.891,0-10.671,4.781-10.671,10.656v128.232h0.031
	c0.25,5.672,4.906,10.188,10.64,10.188s10.39-4.516,10.64-10.188h0.031V330.435C266.674,324.56,261.892,319.778,256.002,319.778z"/>
<path style="fill:#4FC1E9;" d="M256.002,74.659c-17.671,0-32,14.344-32,32c0,5.906,4.765,10.671,10.672,10.671
	c5.875,0,10.656-4.766,10.656-10.671c0-5.875,4.781-10.656,10.671-10.656c5.89,0,10.671,4.781,10.671,10.656
	c0,5.906,4.766,10.671,10.655,10.671c5.891,0,10.672-4.766,10.672-10.671C288.001,89.003,273.674,74.659,256.002,74.659z"/>
<g>
</g>
<g>
</g>
<g>
</g>
<g>
</g>
<g>
</g>
<g>
</g>
<g>
</g>
<g>
</g>
<g>
</g>
<g>
</g>
<g>
</g>
<g>
</g>
<g>
</g>
<g>
</g>
<g>
</g>
</svg>
