<?xml version="1.0" encoding="iso-8859-1"?>
<!-- Generator: Adobe Illustrator 19.0.0, SVG Export Plug-In . SVG Version: 6.00 Build 0)  -->
<svg version="1.1" id="Layer_1" xmlns="http://www.w3.org/2000/svg" xmlns:xlink="http://www.w3.org/1999/xlink" x="0px" y="0px"
	 viewBox="0 0 512 512" style="enable-background:new 0 0 512 512;" xml:space="preserve">
<g>
	<path style="fill:#5D9CEC;" d="M160.004,0H74.668c-5.891,0-10.664,4.773-10.664,10.672c0,5.891,4.773,10.664,10.664,10.664h74.672
		v469.336H74.668c-5.891,0-10.664,4.766-10.664,10.672c0,5.875,4.773,10.656,10.664,10.656h85.336
		c5.891,0,10.664-4.781,10.664-10.656V10.672C170.668,4.773,165.895,0,160.004,0z"/>
	<path style="fill:#5D9CEC;" d="M437.34,490.672h-74.672V21.336h74.672c5.891,0,10.656-4.773,10.656-10.664
		C447.996,4.773,443.23,0,437.34,0h-85.344c-5.875,0-10.656,4.773-10.656,10.672v490.672c0,5.875,4.781,10.656,10.656,10.656h85.344
		c5.891,0,10.656-4.781,10.656-10.656C447.996,495.438,443.23,490.672,437.34,490.672z"/>
</g>
<path style="fill:#4A89DC;" d="M255.996,213.336c-23.555,0-42.656,19.102-42.656,42.664s19.102,42.672,42.656,42.672
	c23.562,0,42.672-19.109,42.672-42.672S279.559,213.336,255.996,213.336z"/>
<g>
</g>
<g>
</g>
<g>
</g>
<g>
</g>
<g>
</g>
<g>
</g>
<g>
</g>
<g>
</g>
<g>
</g>
<g>
</g>
<g>
</g>
<g>
</g>
<g>
</g>
<g>
</g>
<g>
</g>
</svg>
